solid CATIA STL
  facet normal -4.713925e-001  8.819133e-001 -4.260369e-003
    outer loop
      vertex -2.222281e+001  3.325879e+001  0.000000e+000
      vertex -1.855048e+001  3.543839e+001  4.485941e+001
      vertex -1.530734e+001  3.695518e+001  0.000000e+000
    endloop
  endfacet
  facet normal -3.762875e-001  9.264938e-001  4.122674e-003
    outer loop
      vertex -1.530734e+001  3.695518e+001  0.000000e+000
      vertex -1.855048e+001  3.543839e+001  4.485941e+001
      vertex -1.141287e+001  3.833727e+001  4.485941e+001
    endloop
  endfacet
  facet normal -2.902820e-001  9.569315e-001 -4.281660e-003
    outer loop
      vertex -1.530734e+001  3.695518e+001  0.000000e+000
      vertex -1.141287e+001  3.833727e+001  4.485941e+001
      vertex -7.803613e+000  3.923141e+001  0.000000e+000
    endloop
  endfacet
  facet normal -1.916990e-001  9.814451e-001  4.138639e-003
    outer loop
      vertex -7.803613e+000  3.923141e+001  0.000000e+000
      vertex -1.141287e+001  3.833727e+001  4.485941e+001
      vertex -3.851916e+000  3.981410e+001  4.485941e+001
    endloop
  endfacet
  facet normal -9.801627e-002  9.951755e-001 -4.292287e-003
    outer loop
      vertex -7.803613e+000  3.923141e+001  0.000000e+000
      vertex -3.851916e+000  3.981410e+001  4.485941e+001
      vertex  2.449213e-015  4.000000e+001  0.000000e+000
    endloop
  endfacet
  facet normal  0.000000e+000  9.999915e-001  4.143975e-003
    outer loop
      vertex -3.851916e+000  3.981410e+001  4.485941e+001
      vertex  3.851916e+000  3.981410e+001  4.485941e+001
      vertex  2.449213e-015  4.000000e+001  0.000000e+000
    endloop
  endfacet
  facet normal  9.801627e-002  9.951755e-001 -4.292287e-003
    outer loop
      vertex  7.803613e+000  3.923141e+001  0.000000e+000
      vertex  2.449213e-015  4.000000e+001  0.000000e+000
      vertex  3.851916e+000  3.981410e+001  4.485941e+001
    endloop
  endfacet
  facet normal  1.916990e-001  9.814451e-001  4.138639e-003
    outer loop
      vertex  3.851916e+000  3.981410e+001  4.485941e+001
      vertex  1.141287e+001  3.833727e+001  4.485941e+001
      vertex  7.803613e+000  3.923141e+001  0.000000e+000
    endloop
  endfacet
  facet normal  2.902820e-001  9.569315e-001 -4.281660e-003
    outer loop
      vertex  1.530734e+001  3.695518e+001  0.000000e+000
      vertex  7.803613e+000  3.923141e+001  0.000000e+000
      vertex  1.141287e+001  3.833727e+001  4.485941e+001
    endloop
  endfacet
  facet normal  3.762875e-001  9.264938e-001  4.122674e-003
    outer loop
      vertex  1.141287e+001  3.833727e+001  4.485941e+001
      vertex  1.855048e+001  3.543839e+001  4.485941e+001
      vertex  1.530734e+001  3.695518e+001  0.000000e+000
    endloop
  endfacet
  facet normal  4.713925e-001  8.819133e-001 -4.260369e-003
    outer loop
      vertex  2.222281e+001  3.325879e+001  0.000000e+000
      vertex  1.530734e+001  3.695518e+001  0.000000e+000
      vertex  1.855048e+001  3.543839e+001  4.485941e+001
    endloop
  endfacet
  facet normal -4.713831e-001  8.818958e-001  7.601802e-003
    outer loop
      vertex -2.222281e+001  3.325879e+001  1.200000e+002
      vertex -1.530734e+001  3.695518e+001  1.200000e+002
      vertex -1.855048e+001  3.543839e+001  9.485941e+001
    endloop
  endfacet
  facet normal -3.762805e-001  9.264766e-001 -7.356122e-003
    outer loop
      vertex -1.141287e+001  3.833727e+001  9.485941e+001
      vertex -1.855048e+001  3.543839e+001  9.485941e+001
      vertex -1.530734e+001  3.695518e+001  1.200000e+002
    endloop
  endfacet
  facet normal -2.902762e-001  9.569124e-001  7.639792e-003
    outer loop
      vertex -1.530734e+001  3.695518e+001  1.200000e+002
      vertex -7.803613e+000  3.923141e+001  1.200000e+002
      vertex -1.141287e+001  3.833727e+001  9.485941e+001
    endloop
  endfacet
  facet normal -1.916954e-001  9.814268e-001 -7.384607e-003
    outer loop
      vertex -3.851916e+000  3.981410e+001  9.485941e+001
      vertex -1.141287e+001  3.833727e+001  9.485941e+001
      vertex -7.803613e+000  3.923141e+001  1.200000e+002
    endloop
  endfacet
  facet normal -9.801430e-002  9.951556e-001  7.658753e-003
    outer loop
      vertex -7.803613e+000  3.923141e+001  1.200000e+002
      vertex  2.449213e-015  4.000000e+001  1.200000e+002
      vertex -3.851916e+000  3.981410e+001  9.485941e+001
    endloop
  endfacet
  facet normal  0.000000e+000  9.999726e-001 -7.394127e-003
    outer loop
      vertex -3.851916e+000  3.981410e+001  9.485941e+001
      vertex  2.449213e-015  4.000000e+001  1.200000e+002
      vertex  3.851916e+000  3.981410e+001  9.485941e+001
    endloop
  endfacet
  facet normal  9.801430e-002  9.951556e-001  7.658753e-003
    outer loop
      vertex  3.851916e+000  3.981410e+001  9.485941e+001
      vertex  2.449213e-015  4.000000e+001  1.200000e+002
      vertex  7.803613e+000  3.923141e+001  1.200000e+002
    endloop
  endfacet
  facet normal  1.916954e-001  9.814268e-001 -7.384608e-003
    outer loop
      vertex  3.851916e+000  3.981410e+001  9.485941e+001
      vertex  7.803613e+000  3.923141e+001  1.200000e+002
      vertex  1.141287e+001  3.833727e+001  9.485941e+001
    endloop
  endfacet
  facet normal  2.902762e-001  9.569124e-001  7.639792e-003
    outer loop
      vertex  1.141287e+001  3.833727e+001  9.485941e+001
      vertex  7.803613e+000  3.923141e+001  1.200000e+002
      vertex  1.530734e+001  3.695518e+001  1.200000e+002
    endloop
  endfacet
  facet normal  3.762805e-001  9.264766e-001 -7.356122e-003
    outer loop
      vertex  1.141287e+001  3.833727e+001  9.485941e+001
      vertex  1.530734e+001  3.695518e+001  1.200000e+002
      vertex  1.855048e+001  3.543839e+001  9.485941e+001
    endloop
  endfacet
  facet normal  4.713831e-001  8.818958e-001  7.601802e-003
    outer loop
      vertex  1.855048e+001  3.543839e+001  9.485941e+001
      vertex  1.530734e+001  3.695518e+001  1.200000e+002
      vertex  2.222281e+001  3.325879e+001  1.200000e+002
    endloop
  endfacet
  facet normal -5.469182e-001  8.371761e-001  4.096075e-003
    outer loop
      vertex -2.500000e+001  3.122499e+001  4.485941e+001
      vertex -1.855048e+001  3.543839e+001  4.485941e+001
      vertex -2.222281e+001  3.325879e+001  0.000000e+000
    endloop
  endfacet
  facet normal -6.343877e-001  7.730035e-001 -4.228445e-003
    outer loop
      vertex -2.500000e+001  3.122499e+001  4.485941e+001
      vertex -2.222281e+001  3.325879e+001  0.000000e+000
      vertex -2.828427e+001  2.828427e+001  0.000000e+000
    endloop
  endfacet
  facet normal -6.670671e-001  7.449977e-001  0.000000e+000
    outer loop
      vertex -2.500000e+001  3.122499e+001  4.485941e+001
      vertex -2.828427e+001  2.828427e+001  0.000000e+000
      vertex -2.828427e+001  2.828427e+001  6.985941e+001
    endloop
  endfacet
  facet normal -6.670671e-001  7.449977e-001  0.000000e+000
    outer loop
      vertex -2.500000e+001  3.122499e+001  4.485941e+001
      vertex -2.828427e+001  2.828427e+001  6.985941e+001
      vertex -2.500000e+001  3.122499e+001  9.485941e+001
    endloop
  endfacet
  facet normal  5.469083e-001  8.371607e-001 -7.308663e-003
    outer loop
      vertex  2.500000e+001  3.122499e+001  9.485941e+001
      vertex  1.855048e+001  3.543839e+001  9.485941e+001
      vertex  2.222281e+001  3.325879e+001  1.200000e+002
    endloop
  endfacet
  facet normal  6.343753e-001  7.729884e-001  7.544842e-003
    outer loop
      vertex  2.500000e+001  3.122499e+001  9.485941e+001
      vertex  2.222281e+001  3.325879e+001  1.200000e+002
      vertex  2.828427e+001  2.828427e+001  1.200000e+002
    endloop
  endfacet
  facet normal  6.670671e-001  7.449976e-001  0.000000e+000
    outer loop
      vertex  2.500000e+001  3.122499e+001  9.485941e+001
      vertex  2.828427e+001  2.828427e+001  1.200000e+002
      vertex  2.828427e+001  2.828427e+001  6.985941e+001
    endloop
  endfacet
  facet normal  6.670671e-001  7.449977e-001  0.000000e+000
    outer loop
      vertex  2.500000e+001  3.122499e+001  9.485941e+001
      vertex  2.828427e+001  2.828427e+001  6.985941e+001
      vertex  2.500000e+001  3.122499e+001  4.485941e+001
    endloop
  endfacet
  facet normal  6.670671e-001  7.449977e-001  0.000000e+000
    outer loop
      vertex  2.500000e+001  3.122499e+001  4.485941e+001
      vertex  2.828427e+001  2.828427e+001  6.985941e+001
      vertex  2.828427e+001  2.828427e+001  0.000000e+000
    endloop
  endfacet
  facet normal  6.343877e-001  7.730035e-001 -4.228445e-003
    outer loop
      vertex  2.500000e+001  3.122499e+001  4.485941e+001
      vertex  2.828427e+001  2.828427e+001  0.000000e+000
      vertex  2.222281e+001  3.325879e+001  0.000000e+000
    endloop
  endfacet
  facet normal  5.469182e-001  8.371761e-001  4.096075e-003
    outer loop
      vertex  2.500000e+001  3.122499e+001  4.485941e+001
      vertex  2.222281e+001  3.325879e+001  0.000000e+000
      vertex  1.855048e+001  3.543839e+001  4.485941e+001
    endloop
  endfacet
  facet normal -9.951847e-001  9.801717e-002  0.000000e+000
    outer loop
      vertex -4.000000e+001  4.898425e-015  0.000000e+000
      vertex -4.000000e+001  4.898425e-015  1.200000e+002
      vertex -3.923141e+001  7.803613e+000  6.985941e+001
    endloop
  endfacet
  facet normal -9.951847e-001  9.801717e-002  0.000000e+000
    outer loop
      vertex -3.923141e+001  7.803613e+000  6.985941e+001
      vertex -4.000000e+001  4.898425e-015  1.200000e+002
      vertex -3.923141e+001  7.803613e+000  1.200000e+002
    endloop
  endfacet
  facet normal -9.569403e-001  2.902846e-001  0.000000e+000
    outer loop
      vertex -3.923141e+001  7.803613e+000  6.985941e+001
      vertex -3.923141e+001  7.803613e+000  1.200000e+002
      vertex -3.695518e+001  1.530734e+001  6.985941e+001
    endloop
  endfacet
  facet normal -9.569403e-001  2.902846e-001  0.000000e+000
    outer loop
      vertex -3.695518e+001  1.530734e+001  6.985941e+001
      vertex -3.923141e+001  7.803613e+000  1.200000e+002
      vertex -3.695518e+001  1.530734e+001  1.200000e+002
    endloop
  endfacet
  facet normal -8.819214e-001  4.713967e-001  0.000000e+000
    outer loop
      vertex -3.695518e+001  1.530734e+001  6.985941e+001
      vertex -3.695518e+001  1.530734e+001  1.200000e+002
      vertex -3.325879e+001  2.222281e+001  6.985941e+001
    endloop
  endfacet
  facet normal -8.819214e-001  4.713967e-001  0.000000e+000
    outer loop
      vertex -3.325879e+001  2.222281e+001  6.985941e+001
      vertex -3.695518e+001  1.530734e+001  1.200000e+002
      vertex -3.325879e+001  2.222281e+001  1.200000e+002
    endloop
  endfacet
  facet normal -7.730104e-001  6.343933e-001  0.000000e+000
    outer loop
      vertex -3.325879e+001  2.222281e+001  6.985941e+001
      vertex -3.325879e+001  2.222281e+001  1.200000e+002
      vertex -2.828427e+001  2.828427e+001  6.985941e+001
    endloop
  endfacet
  facet normal -7.730104e-001  6.343933e-001  0.000000e+000
    outer loop
      vertex -2.828427e+001  2.828427e+001  6.985941e+001
      vertex -3.325879e+001  2.222281e+001  1.200000e+002
      vertex -2.828427e+001  2.828427e+001  1.200000e+002
    endloop
  endfacet
  facet normal -6.670671e-001  7.449976e-001  0.000000e+000
    outer loop
      vertex -2.828427e+001  2.828427e+001  6.985941e+001
      vertex -2.828427e+001  2.828427e+001  1.200000e+002
      vertex -2.500000e+001  3.122499e+001  9.485941e+001
    endloop
  endfacet
  facet normal -6.343753e-001  7.729884e-001  7.544842e-003
    outer loop
      vertex -2.500000e+001  3.122499e+001  9.485941e+001
      vertex -2.828427e+001  2.828427e+001  1.200000e+002
      vertex -2.222281e+001  3.325879e+001  1.200000e+002
    endloop
  endfacet
  facet normal -5.469083e-001  8.371607e-001 -7.308663e-003
    outer loop
      vertex -2.500000e+001  3.122499e+001  9.485941e+001
      vertex -2.222281e+001  3.325879e+001  1.200000e+002
      vertex -1.855048e+001  3.543839e+001  9.485941e+001
    endloop
  endfacet
  facet normal  9.951847e-001  9.801717e-002  -0.000000e+000
    outer loop
      vertex  4.000000e+001  0.000000e+000  1.200000e+002
      vertex  4.000000e+001  0.000000e+000  0.000000e+000
      vertex  3.923141e+001  7.803613e+000  6.985941e+001
    endloop
  endfacet
  facet normal  9.951848e-001  9.801718e-002  0.000000e+000
    outer loop
      vertex  3.923141e+001  7.803613e+000  6.985941e+001
      vertex  4.000000e+001  0.000000e+000  0.000000e+000
      vertex  3.923141e+001  7.803613e+000  0.000000e+000
    endloop
  endfacet
  facet normal  9.569403e-001  2.902847e-001  -0.000000e+000
    outer loop
      vertex  3.923141e+001  7.803613e+000  6.985941e+001
      vertex  3.923141e+001  7.803613e+000  0.000000e+000
      vertex  3.695518e+001  1.530734e+001  6.985941e+001
    endloop
  endfacet
  facet normal  9.569403e-001  2.902847e-001  0.000000e+000
    outer loop
      vertex  3.695518e+001  1.530734e+001  6.985941e+001
      vertex  3.923141e+001  7.803613e+000  0.000000e+000
      vertex  3.695518e+001  1.530734e+001  0.000000e+000
    endloop
  endfacet
  facet normal  8.819212e-001  4.713967e-001  -0.000000e+000
    outer loop
      vertex  3.695518e+001  1.530734e+001  6.985941e+001
      vertex  3.695518e+001  1.530734e+001  0.000000e+000
      vertex  3.325879e+001  2.222281e+001  6.985941e+001
    endloop
  endfacet
  facet normal  8.819212e-001  4.713967e-001  0.000000e+000
    outer loop
      vertex  3.325879e+001  2.222281e+001  6.985941e+001
      vertex  3.695518e+001  1.530734e+001  0.000000e+000
      vertex  3.325879e+001  2.222281e+001  0.000000e+000
    endloop
  endfacet
  facet normal  7.730104e-001  6.343933e-001  -0.000000e+000
    outer loop
      vertex  3.325879e+001  2.222281e+001  6.985941e+001
      vertex  3.325879e+001  2.222281e+001  0.000000e+000
      vertex  2.828427e+001  2.828427e+001  6.985941e+001
    endloop
  endfacet
  facet normal  7.730104e-001  6.343933e-001  0.000000e+000
    outer loop
      vertex  2.828427e+001  2.828427e+001  6.985941e+001
      vertex  3.325879e+001  2.222281e+001  0.000000e+000
      vertex  2.828427e+001  2.828427e+001  0.000000e+000
    endloop
  endfacet
  facet normal -7.730104e-001  6.343933e-001  0.000000e+000
    outer loop
      vertex -2.828427e+001  2.828427e+001  6.985941e+001
      vertex -2.828427e+001  2.828427e+001  0.000000e+000
      vertex -3.325879e+001  2.222281e+001  6.985941e+001
    endloop
  endfacet
  facet normal -7.730104e-001  6.343933e-001  0.000000e+000
    outer loop
      vertex -3.325879e+001  2.222281e+001  6.985941e+001
      vertex -2.828427e+001  2.828427e+001  0.000000e+000
      vertex -3.325879e+001  2.222281e+001  0.000000e+000
    endloop
  endfacet
  facet normal -8.819212e-001  4.713967e-001  0.000000e+000
    outer loop
      vertex -3.325879e+001  2.222281e+001  6.985941e+001
      vertex -3.325879e+001  2.222281e+001  0.000000e+000
      vertex -3.695518e+001  1.530734e+001  6.985941e+001
    endloop
  endfacet
  facet normal -8.819212e-001  4.713967e-001  0.000000e+000
    outer loop
      vertex -3.695518e+001  1.530734e+001  6.985941e+001
      vertex -3.325879e+001  2.222281e+001  0.000000e+000
      vertex -3.695518e+001  1.530734e+001  0.000000e+000
    endloop
  endfacet
  facet normal -9.569403e-001  2.902847e-001  0.000000e+000
    outer loop
      vertex -3.695518e+001  1.530734e+001  6.985941e+001
      vertex -3.695518e+001  1.530734e+001  0.000000e+000
      vertex -3.923141e+001  7.803613e+000  6.985941e+001
    endloop
  endfacet
  facet normal -9.569403e-001  2.902847e-001  0.000000e+000
    outer loop
      vertex -3.923141e+001  7.803613e+000  6.985941e+001
      vertex -3.695518e+001  1.530734e+001  0.000000e+000
      vertex -3.923141e+001  7.803613e+000  0.000000e+000
    endloop
  endfacet
  facet normal -9.951848e-001  9.801718e-002  0.000000e+000
    outer loop
      vertex -3.923141e+001  7.803613e+000  6.985941e+001
      vertex -3.923141e+001  7.803613e+000  0.000000e+000
      vertex -4.000000e+001  4.898425e-015  0.000000e+000
    endloop
  endfacet
  facet normal  7.730104e-001  6.343933e-001  0.000000e+000
    outer loop
      vertex  2.828427e+001  2.828427e+001  6.985941e+001
      vertex  2.828427e+001  2.828427e+001  1.200000e+002
      vertex  3.325879e+001  2.222281e+001  6.985941e+001
    endloop
  endfacet
  facet normal  7.730104e-001  6.343933e-001  -0.000000e+000
    outer loop
      vertex  3.325879e+001  2.222281e+001  6.985941e+001
      vertex  2.828427e+001  2.828427e+001  1.200000e+002
      vertex  3.325879e+001  2.222281e+001  1.200000e+002
    endloop
  endfacet
  facet normal  8.819214e-001  4.713967e-001  0.000000e+000
    outer loop
      vertex  3.325879e+001  2.222281e+001  6.985941e+001
      vertex  3.325879e+001  2.222281e+001  1.200000e+002
      vertex  3.695518e+001  1.530734e+001  6.985941e+001
    endloop
  endfacet
  facet normal  8.819214e-001  4.713967e-001  -0.000000e+000
    outer loop
      vertex  3.695518e+001  1.530734e+001  6.985941e+001
      vertex  3.325879e+001  2.222281e+001  1.200000e+002
      vertex  3.695518e+001  1.530734e+001  1.200000e+002
    endloop
  endfacet
  facet normal  9.569403e-001  2.902846e-001  0.000000e+000
    outer loop
      vertex  3.695518e+001  1.530734e+001  6.985941e+001
      vertex  3.695518e+001  1.530734e+001  1.200000e+002
      vertex  3.923141e+001  7.803613e+000  6.985941e+001
    endloop
  endfacet
  facet normal  9.569403e-001  2.902846e-001  -0.000000e+000
    outer loop
      vertex  3.923141e+001  7.803613e+000  6.985941e+001
      vertex  3.695518e+001  1.530734e+001  1.200000e+002
      vertex  3.923141e+001  7.803613e+000  1.200000e+002
    endloop
  endfacet
  facet normal  9.951847e-001  9.801717e-002  0.000000e+000
    outer loop
      vertex  3.923141e+001  7.803613e+000  6.985941e+001
      vertex  3.923141e+001  7.803613e+000  1.200000e+002
      vertex  4.000000e+001  0.000000e+000  1.200000e+002
    endloop
  endfacet
  facet normal  -0.000000e+000  0.000000e+000  1.000000e+000
    outer loop
      vertex  2.500000e+001  1.200000e+002  9.485941e+001
      vertex -2.500000e+001  1.200000e+002  9.485941e+001
      vertex  3.851916e+000  3.981410e+001  9.485941e+001
    endloop
  endfacet
  facet normal  -0.000000e+000  0.000000e+000  1.000000e+000
    outer loop
      vertex  2.500000e+001  1.200000e+002  9.485941e+001
      vertex  3.851916e+000  3.981410e+001  9.485941e+001
      vertex  1.141287e+001  3.833727e+001  9.485941e+001
    endloop
  endfacet
  facet normal  -0.000000e+000  0.000000e+000  1.000000e+000
    outer loop
      vertex  2.500000e+001  1.200000e+002  9.485941e+001
      vertex  1.141287e+001  3.833727e+001  9.485941e+001
      vertex  1.855048e+001  3.543839e+001  9.485941e+001
    endloop
  endfacet
  facet normal  -0.000000e+000  0.000000e+000  1.000000e+000
    outer loop
      vertex  2.500000e+001  1.200000e+002  9.485941e+001
      vertex  1.855048e+001  3.543839e+001  9.485941e+001
      vertex  2.500000e+001  3.122499e+001  9.485941e+001
    endloop
  endfacet
  facet normal  0.000000e+000  0.000000e+000  1.000000e+000
    outer loop
      vertex -2.500000e+001  1.200000e+002  9.485941e+001
      vertex -2.500000e+001  3.122499e+001  9.485941e+001
      vertex -1.855048e+001  3.543839e+001  9.485941e+001
    endloop
  endfacet
  facet normal  0.000000e+000  -0.000000e+000  1.000000e+000
    outer loop
      vertex -2.500000e+001  1.200000e+002  9.485941e+001
      vertex -1.855048e+001  3.543839e+001  9.485941e+001
      vertex -1.141287e+001  3.833727e+001  9.485941e+001
    endloop
  endfacet
  facet normal  0.000000e+000  -0.000000e+000  1.000000e+000
    outer loop
      vertex -2.500000e+001  1.200000e+002  9.485941e+001
      vertex -1.141287e+001  3.833727e+001  9.485941e+001
      vertex -3.851916e+000  3.981410e+001  9.485941e+001
    endloop
  endfacet
  facet normal  0.000000e+000  -0.000000e+000  1.000000e+000
    outer loop
      vertex -2.500000e+001  1.200000e+002  9.485941e+001
      vertex -3.851916e+000  3.981410e+001  9.485941e+001
      vertex  3.851916e+000  3.981410e+001  9.485941e+001
    endloop
  endfacet
  facet normal  1.000000e+000  0.000000e+000  0.000000e+000
    outer loop
      vertex  2.500000e+001  3.122499e+001  4.485941e+001
      vertex  2.500000e+001  1.200000e+002  4.485941e+001
      vertex  2.500000e+001  3.122499e+001  9.485941e+001
    endloop
  endfacet
  facet normal  1.000000e+000  -0.000000e+000  0.000000e+000
    outer loop
      vertex  2.500000e+001  3.122499e+001  9.485941e+001
      vertex  2.500000e+001  1.200000e+002  4.485941e+001
      vertex  2.500000e+001  1.200000e+002  9.485941e+001
    endloop
  endfacet
  facet normal  -0.000000e+000  0.000000e+000 -1.000000e+000
    outer loop
      vertex -2.500000e+001  1.200000e+002  4.485941e+001
      vertex  2.500000e+001  1.200000e+002  4.485941e+001
      vertex -3.851916e+000  3.981410e+001  4.485941e+001
    endloop
  endfacet
  facet normal  -0.000000e+000  0.000000e+000 -1.000000e+000
    outer loop
      vertex -2.500000e+001  1.200000e+002  4.485941e+001
      vertex -3.851916e+000  3.981410e+001  4.485941e+001
      vertex -1.141287e+001  3.833727e+001  4.485941e+001
    endloop
  endfacet
  facet normal  -0.000000e+000  0.000000e+000 -1.000000e+000
    outer loop
      vertex -2.500000e+001  1.200000e+002  4.485941e+001
      vertex -1.141287e+001  3.833727e+001  4.485941e+001
      vertex -1.855048e+001  3.543839e+001  4.485941e+001
    endloop
  endfacet
  facet normal  -0.000000e+000  0.000000e+000 -1.000000e+000
    outer loop
      vertex -2.500000e+001  1.200000e+002  4.485941e+001
      vertex -1.855048e+001  3.543839e+001  4.485941e+001
      vertex -2.500000e+001  3.122499e+001  4.485941e+001
    endloop
  endfacet
  facet normal  0.000000e+000  0.000000e+000 -1.000000e+000
    outer loop
      vertex  2.500000e+001  1.200000e+002  4.485941e+001
      vertex  2.500000e+001  3.122499e+001  4.485941e+001
      vertex  1.855048e+001  3.543839e+001  4.485941e+001
    endloop
  endfacet
  facet normal  0.000000e+000  0.000000e+000 -1.000000e+000
    outer loop
      vertex  2.500000e+001  1.200000e+002  4.485941e+001
      vertex  1.855048e+001  3.543839e+001  4.485941e+001
      vertex  1.141287e+001  3.833727e+001  4.485941e+001
    endloop
  endfacet
  facet normal  0.000000e+000  0.000000e+000 -1.000000e+000
    outer loop
      vertex  2.500000e+001  1.200000e+002  4.485941e+001
      vertex  1.141287e+001  3.833727e+001  4.485941e+001
      vertex  3.851916e+000  3.981410e+001  4.485941e+001
    endloop
  endfacet
  facet normal  0.000000e+000  0.000000e+000 -1.000000e+000
    outer loop
      vertex  2.500000e+001  1.200000e+002  4.485941e+001
      vertex  3.851916e+000  3.981410e+001  4.485941e+001
      vertex -3.851916e+000  3.981410e+001  4.485941e+001
    endloop
  endfacet
  facet normal -1.000000e+000  -0.000000e+000  0.000000e+000
    outer loop
      vertex -2.500000e+001  3.122499e+001  9.485941e+001
      vertex -2.500000e+001  1.200000e+002  9.485941e+001
      vertex -2.500000e+001  3.122499e+001  4.485941e+001
    endloop
  endfacet
  facet normal -1.000000e+000  0.000000e+000  0.000000e+000
    outer loop
      vertex -2.500000e+001  3.122499e+001  4.485941e+001
      vertex -2.500000e+001  1.200000e+002  9.485941e+001
      vertex -2.500000e+001  1.200000e+002  4.485941e+001
    endloop
  endfacet
  facet normal  0.000000e+000  1.000000e+000  0.000000e+000
    outer loop
      vertex  2.500000e+001  1.200000e+002  4.485941e+001
      vertex -2.500000e+001  1.200000e+002  4.485941e+001
      vertex  2.500000e+001  1.200000e+002  9.485941e+001
    endloop
  endfacet
  facet normal  0.000000e+000  1.000000e+000  0.000000e+000
    outer loop
      vertex  2.500000e+001  1.200000e+002  9.485941e+001
      vertex -2.500000e+001  1.200000e+002  4.485941e+001
      vertex -2.500000e+001  1.200000e+002  9.485941e+001
    endloop
  endfacet
  facet normal  0.000000e+000  0.000000e+000  1.000000e+000
    outer loop
      vertex -7.803613e+000  3.923141e+001  1.200000e+002
      vertex  7.803613e+000  3.923141e+001  1.200000e+002
      vertex  2.449213e-015  4.000000e+001  1.200000e+002
    endloop
  endfacet
  facet normal  -0.000000e+000  0.000000e+000  1.000000e+000
    outer loop
      vertex  7.803613e+000  3.923141e+001  1.200000e+002
      vertex -7.803613e+000  3.923141e+001  1.200000e+002
      vertex  1.530734e+001  3.695518e+001  1.200000e+002
    endloop
  endfacet
  facet normal  0.000000e+000  0.000000e+000  1.000000e+000
    outer loop
      vertex  1.530734e+001  3.695518e+001  1.200000e+002
      vertex -7.803613e+000  3.923141e+001  1.200000e+002
      vertex -1.530734e+001  3.695518e+001  1.200000e+002
    endloop
  endfacet
  facet normal  -0.000000e+000  0.000000e+000  9.999999e-001
    outer loop
      vertex  1.530734e+001  3.695518e+001  1.200000e+002
      vertex -1.530734e+001  3.695518e+001  1.200000e+002
      vertex  2.222281e+001  3.325879e+001  1.200000e+002
    endloop
  endfacet
  facet normal  0.000000e+000  0.000000e+000  1.000000e+000
    outer loop
      vertex  2.222281e+001  3.325879e+001  1.200000e+002
      vertex -1.530734e+001  3.695518e+001  1.200000e+002
      vertex -2.222281e+001  3.325879e+001  1.200000e+002
    endloop
  endfacet
  facet normal  -0.000000e+000  0.000000e+000  1.000000e+000
    outer loop
      vertex  2.222281e+001  3.325879e+001  1.200000e+002
      vertex -2.222281e+001  3.325879e+001  1.200000e+002
      vertex  2.828427e+001  2.828427e+001  1.200000e+002
    endloop
  endfacet
  facet normal  0.000000e+000  0.000000e+000  1.000000e+000
    outer loop
      vertex  2.828427e+001  2.828427e+001  1.200000e+002
      vertex -2.222281e+001  3.325879e+001  1.200000e+002
      vertex -2.828427e+001  2.828427e+001  1.200000e+002
    endloop
  endfacet
  facet normal  -0.000000e+000  0.000000e+000  1.000000e+000
    outer loop
      vertex  2.828427e+001  2.828427e+001  1.200000e+002
      vertex -2.828427e+001  2.828427e+001  1.200000e+002
      vertex  3.325879e+001  2.222281e+001  1.200000e+002
    endloop
  endfacet
  facet normal  0.000000e+000  0.000000e+000  1.000000e+000
    outer loop
      vertex  3.325879e+001  2.222281e+001  1.200000e+002
      vertex -2.828427e+001  2.828427e+001  1.200000e+002
      vertex -3.325879e+001  2.222281e+001  1.200000e+002
    endloop
  endfacet
  facet normal  -0.000000e+000  0.000000e+000  1.000000e+000
    outer loop
      vertex  3.325879e+001  2.222281e+001  1.200000e+002
      vertex -3.325879e+001  2.222281e+001  1.200000e+002
      vertex  3.695518e+001  1.530734e+001  1.200000e+002
    endloop
  endfacet
  facet normal  0.000000e+000  0.000000e+000  1.000000e+000
    outer loop
      vertex  3.695518e+001  1.530734e+001  1.200000e+002
      vertex -3.325879e+001  2.222281e+001  1.200000e+002
      vertex -3.695518e+001  1.530734e+001  1.200000e+002
    endloop
  endfacet
  facet normal  -0.000000e+000  0.000000e+000  1.000000e+000
    outer loop
      vertex  3.695518e+001  1.530734e+001  1.200000e+002
      vertex -3.695518e+001  1.530734e+001  1.200000e+002
      vertex  3.923141e+001  7.803613e+000  1.200000e+002
    endloop
  endfacet
  facet normal  0.000000e+000  0.000000e+000  1.000000e+000
    outer loop
      vertex  3.923141e+001  7.803613e+000  1.200000e+002
      vertex -3.695518e+001  1.530734e+001  1.200000e+002
      vertex -3.923141e+001  7.803613e+000  1.200000e+002
    endloop
  endfacet
  facet normal  -0.000000e+000  0.000000e+000  1.000000e+000
    outer loop
      vertex  3.923141e+001  7.803613e+000  1.200000e+002
      vertex -3.923141e+001  7.803613e+000  1.200000e+002
      vertex  4.000000e+001  0.000000e+000  1.200000e+002
    endloop
  endfacet
  facet normal  0.000000e+000  0.000000e+000  1.000000e+000
    outer loop
      vertex  4.000000e+001  0.000000e+000  1.200000e+002
      vertex -3.923141e+001  7.803613e+000  1.200000e+002
      vertex -4.000000e+001  4.898425e-015  1.200000e+002
    endloop
  endfacet
  facet normal  0.000000e+000  0.000000e+000  1.000000e+000
    outer loop
      vertex  4.000000e+001  0.000000e+000  1.200000e+002
      vertex -4.000000e+001  4.898425e-015  1.200000e+002
      vertex  3.923141e+001 -7.803613e+000  1.200000e+002
    endloop
  endfacet
  facet normal  0.000000e+000  0.000000e+000  1.000000e+000
    outer loop
      vertex  3.923141e+001 -7.803613e+000  1.200000e+002
      vertex -4.000000e+001  4.898425e-015  1.200000e+002
      vertex -3.923141e+001 -7.803613e+000  1.200000e+002
    endloop
  endfacet
  facet normal  -0.000000e+000  0.000000e+000  1.000000e+000
    outer loop
      vertex  3.923141e+001 -7.803613e+000  1.200000e+002
      vertex -3.923141e+001 -7.803613e+000  1.200000e+002
      vertex  3.695518e+001 -1.530734e+001  1.200000e+002
    endloop
  endfacet
  facet normal  0.000000e+000  0.000000e+000  1.000000e+000
    outer loop
      vertex  3.695518e+001 -1.530734e+001  1.200000e+002
      vertex -3.923141e+001 -7.803613e+000  1.200000e+002
      vertex -3.695518e+001 -1.530734e+001  1.200000e+002
    endloop
  endfacet
  facet normal  -0.000000e+000  0.000000e+000  1.000000e+000
    outer loop
      vertex  3.695518e+001 -1.530734e+001  1.200000e+002
      vertex -3.695518e+001 -1.530734e+001  1.200000e+002
      vertex  3.325879e+001 -2.222281e+001  1.200000e+002
    endloop
  endfacet
  facet normal  0.000000e+000  0.000000e+000  1.000000e+000
    outer loop
      vertex  3.325879e+001 -2.222281e+001  1.200000e+002
      vertex -3.695518e+001 -1.530734e+001  1.200000e+002
      vertex -3.325879e+001 -2.222281e+001  1.200000e+002
    endloop
  endfacet
  facet normal  -0.000000e+000  0.000000e+000  1.000000e+000
    outer loop
      vertex  3.325879e+001 -2.222281e+001  1.200000e+002
      vertex -3.325879e+001 -2.222281e+001  1.200000e+002
      vertex  2.828427e+001 -2.828427e+001  1.200000e+002
    endloop
  endfacet
  facet normal  0.000000e+000  0.000000e+000  1.000000e+000
    outer loop
      vertex  2.828427e+001 -2.828427e+001  1.200000e+002
      vertex -3.325879e+001 -2.222281e+001  1.200000e+002
      vertex -2.828427e+001 -2.828427e+001  1.200000e+002
    endloop
  endfacet
  facet normal  -0.000000e+000  0.000000e+000  1.000000e+000
    outer loop
      vertex  2.828427e+001 -2.828427e+001  1.200000e+002
      vertex -2.828427e+001 -2.828427e+001  1.200000e+002
      vertex  2.222281e+001 -3.325879e+001  1.200000e+002
    endloop
  endfacet
  facet normal  0.000000e+000  0.000000e+000  1.000000e+000
    outer loop
      vertex  2.222281e+001 -3.325879e+001  1.200000e+002
      vertex -2.828427e+001 -2.828427e+001  1.200000e+002
      vertex -2.222281e+001 -3.325879e+001  1.200000e+002
    endloop
  endfacet
  facet normal  -0.000000e+000  0.000000e+000  1.000000e+000
    outer loop
      vertex  2.222281e+001 -3.325879e+001  1.200000e+002
      vertex -2.222281e+001 -3.325879e+001  1.200000e+002
      vertex  1.530734e+001 -3.695518e+001  1.200000e+002
    endloop
  endfacet
  facet normal  0.000000e+000  0.000000e+000  9.999999e-001
    outer loop
      vertex  1.530734e+001 -3.695518e+001  1.200000e+002
      vertex -2.222281e+001 -3.325879e+001  1.200000e+002
      vertex -1.530734e+001 -3.695518e+001  1.200000e+002
    endloop
  endfacet
  facet normal  -0.000000e+000  0.000000e+000  1.000000e+000
    outer loop
      vertex  1.530734e+001 -3.695518e+001  1.200000e+002
      vertex -1.530734e+001 -3.695518e+001  1.200000e+002
      vertex  7.803613e+000 -3.923141e+001  1.200000e+002
    endloop
  endfacet
  facet normal  0.000000e+000  0.000000e+000  1.000000e+000
    outer loop
      vertex  7.803613e+000 -3.923141e+001  1.200000e+002
      vertex -1.530734e+001 -3.695518e+001  1.200000e+002
      vertex -7.803613e+000 -3.923141e+001  1.200000e+002
    endloop
  endfacet
  facet normal  -0.000000e+000  0.000000e+000  1.000000e+000
    outer loop
      vertex  7.803613e+000 -3.923141e+001  1.200000e+002
      vertex -7.803613e+000 -3.923141e+001  1.200000e+002
      vertex -7.347638e-015 -4.000000e+001  1.200000e+002
    endloop
  endfacet
  facet normal  0.000000e+000  0.000000e+000 -1.000000e+000
    outer loop
      vertex  2.449213e-015  4.000000e+001  0.000000e+000
      vertex  7.803613e+000  3.923141e+001  0.000000e+000
      vertex -7.803613e+000  3.923141e+001  0.000000e+000
    endloop
  endfacet
  facet normal  0.000000e+000  0.000000e+000 -1.000000e+000
    outer loop
      vertex -7.347638e-015 -4.000000e+001  0.000000e+000
      vertex -7.803613e+000 -3.923141e+001  0.000000e+000
      vertex  7.803613e+000 -3.923141e+001  0.000000e+000
    endloop
  endfacet
  facet normal  0.000000e+000  0.000000e+000 -1.000000e+000
    outer loop
      vertex  7.803613e+000 -3.923141e+001  0.000000e+000
      vertex -7.803613e+000 -3.923141e+001  0.000000e+000
      vertex -1.530734e+001 -3.695518e+001  0.000000e+000
    endloop
  endfacet
  facet normal  0.000000e+000  0.000000e+000 -1.000000e+000
    outer loop
      vertex  7.803613e+000 -3.923141e+001  0.000000e+000
      vertex -1.530734e+001 -3.695518e+001  0.000000e+000
      vertex  1.530734e+001 -3.695518e+001  0.000000e+000
    endloop
  endfacet
  facet normal  0.000000e+000  0.000000e+000 -9.999999e-001
    outer loop
      vertex  1.530734e+001 -3.695518e+001  0.000000e+000
      vertex -1.530734e+001 -3.695518e+001  0.000000e+000
      vertex -2.222281e+001 -3.325879e+001  0.000000e+000
    endloop
  endfacet
  facet normal  0.000000e+000  0.000000e+000 -1.000000e+000
    outer loop
      vertex  1.530734e+001 -3.695518e+001  0.000000e+000
      vertex -2.222281e+001 -3.325879e+001  0.000000e+000
      vertex  2.222281e+001 -3.325879e+001  0.000000e+000
    endloop
  endfacet
  facet normal  0.000000e+000  0.000000e+000 -1.000000e+000
    outer loop
      vertex  2.222281e+001 -3.325879e+001  0.000000e+000
      vertex -2.222281e+001 -3.325879e+001  0.000000e+000
      vertex -2.828427e+001 -2.828427e+001  0.000000e+000
    endloop
  endfacet
  facet normal  0.000000e+000  0.000000e+000 -1.000000e+000
    outer loop
      vertex  2.222281e+001 -3.325879e+001  0.000000e+000
      vertex -2.828427e+001 -2.828427e+001  0.000000e+000
      vertex  2.828427e+001 -2.828427e+001  0.000000e+000
    endloop
  endfacet
  facet normal  0.000000e+000  0.000000e+000 -1.000000e+000
    outer loop
      vertex  2.828427e+001 -2.828427e+001  0.000000e+000
      vertex -2.828427e+001 -2.828427e+001  0.000000e+000
      vertex -3.325879e+001 -2.222281e+001  0.000000e+000
    endloop
  endfacet
  facet normal  0.000000e+000  0.000000e+000 -1.000000e+000
    outer loop
      vertex  2.828427e+001 -2.828427e+001  0.000000e+000
      vertex -3.325879e+001 -2.222281e+001  0.000000e+000
      vertex  3.325879e+001 -2.222281e+001  0.000000e+000
    endloop
  endfacet
  facet normal  0.000000e+000  0.000000e+000 -1.000000e+000
    outer loop
      vertex  3.325879e+001 -2.222281e+001  0.000000e+000
      vertex -3.325879e+001 -2.222281e+001  0.000000e+000
      vertex -3.695518e+001 -1.530734e+001  0.000000e+000
    endloop
  endfacet
  facet normal  0.000000e+000  0.000000e+000 -1.000000e+000
    outer loop
      vertex  3.325879e+001 -2.222281e+001  0.000000e+000
      vertex -3.695518e+001 -1.530734e+001  0.000000e+000
      vertex  3.695518e+001 -1.530734e+001  0.000000e+000
    endloop
  endfacet
  facet normal  0.000000e+000  0.000000e+000 -1.000000e+000
    outer loop
      vertex  3.695518e+001 -1.530734e+001  0.000000e+000
      vertex -3.695518e+001 -1.530734e+001  0.000000e+000
      vertex -3.923141e+001 -7.803613e+000  0.000000e+000
    endloop
  endfacet
  facet normal  0.000000e+000  0.000000e+000 -1.000000e+000
    outer loop
      vertex  3.695518e+001 -1.530734e+001  0.000000e+000
      vertex -3.923141e+001 -7.803613e+000  0.000000e+000
      vertex  3.923141e+001 -7.803613e+000  0.000000e+000
    endloop
  endfacet
  facet normal  0.000000e+000  0.000000e+000 -1.000000e+000
    outer loop
      vertex  3.923141e+001 -7.803613e+000  0.000000e+000
      vertex -3.923141e+001 -7.803613e+000  0.000000e+000
      vertex -4.000000e+001  4.898425e-015  0.000000e+000
    endloop
  endfacet
  facet normal  0.000000e+000  0.000000e+000 -1.000000e+000
    outer loop
      vertex  3.923141e+001 -7.803613e+000  0.000000e+000
      vertex -4.000000e+001  4.898425e-015  0.000000e+000
      vertex  4.000000e+001  0.000000e+000  0.000000e+000
    endloop
  endfacet
  facet normal  0.000000e+000  0.000000e+000 -1.000000e+000
    outer loop
      vertex  4.000000e+001  0.000000e+000  0.000000e+000
      vertex -4.000000e+001  4.898425e-015  0.000000e+000
      vertex -3.923141e+001  7.803613e+000  0.000000e+000
    endloop
  endfacet
  facet normal  0.000000e+000  0.000000e+000 -1.000000e+000
    outer loop
      vertex  4.000000e+001  0.000000e+000  0.000000e+000
      vertex -3.923141e+001  7.803613e+000  0.000000e+000
      vertex  3.923141e+001  7.803613e+000  0.000000e+000
    endloop
  endfacet
  facet normal  0.000000e+000  0.000000e+000 -1.000000e+000
    outer loop
      vertex  3.923141e+001  7.803613e+000  0.000000e+000
      vertex -3.923141e+001  7.803613e+000  0.000000e+000
      vertex -3.695518e+001  1.530734e+001  0.000000e+000
    endloop
  endfacet
  facet normal  0.000000e+000  0.000000e+000 -1.000000e+000
    outer loop
      vertex  3.923141e+001  7.803613e+000  0.000000e+000
      vertex -3.695518e+001  1.530734e+001  0.000000e+000
      vertex  3.695518e+001  1.530734e+001  0.000000e+000
    endloop
  endfacet
  facet normal  0.000000e+000  0.000000e+000 -1.000000e+000
    outer loop
      vertex  3.695518e+001  1.530734e+001  0.000000e+000
      vertex -3.695518e+001  1.530734e+001  0.000000e+000
      vertex -3.325879e+001  2.222281e+001  0.000000e+000
    endloop
  endfacet
  facet normal  0.000000e+000  0.000000e+000 -1.000000e+000
    outer loop
      vertex  3.695518e+001  1.530734e+001  0.000000e+000
      vertex -3.325879e+001  2.222281e+001  0.000000e+000
      vertex  3.325879e+001  2.222281e+001  0.000000e+000
    endloop
  endfacet
  facet normal  0.000000e+000  0.000000e+000 -1.000000e+000
    outer loop
      vertex  3.325879e+001  2.222281e+001  0.000000e+000
      vertex -3.325879e+001  2.222281e+001  0.000000e+000
      vertex -2.828427e+001  2.828427e+001  0.000000e+000
    endloop
  endfacet
  facet normal  0.000000e+000  0.000000e+000 -1.000000e+000
    outer loop
      vertex  3.325879e+001  2.222281e+001  0.000000e+000
      vertex -2.828427e+001  2.828427e+001  0.000000e+000
      vertex  2.828427e+001  2.828427e+001  0.000000e+000
    endloop
  endfacet
  facet normal  0.000000e+000  0.000000e+000 -1.000000e+000
    outer loop
      vertex  2.828427e+001  2.828427e+001  0.000000e+000
      vertex -2.828427e+001  2.828427e+001  0.000000e+000
      vertex -2.222281e+001  3.325879e+001  0.000000e+000
    endloop
  endfacet
  facet normal  0.000000e+000  0.000000e+000 -1.000000e+000
    outer loop
      vertex  2.828427e+001  2.828427e+001  0.000000e+000
      vertex -2.222281e+001  3.325879e+001  0.000000e+000
      vertex  2.222281e+001  3.325879e+001  0.000000e+000
    endloop
  endfacet
  facet normal  0.000000e+000  0.000000e+000 -1.000000e+000
    outer loop
      vertex  2.222281e+001  3.325879e+001  0.000000e+000
      vertex -2.222281e+001  3.325879e+001  0.000000e+000
      vertex -1.530734e+001  3.695518e+001  0.000000e+000
    endloop
  endfacet
  facet normal  0.000000e+000  0.000000e+000 -9.999999e-001
    outer loop
      vertex  2.222281e+001  3.325879e+001  0.000000e+000
      vertex -1.530734e+001  3.695518e+001  0.000000e+000
      vertex  1.530734e+001  3.695518e+001  0.000000e+000
    endloop
  endfacet
  facet normal  0.000000e+000  0.000000e+000 -1.000000e+000
    outer loop
      vertex  1.530734e+001  3.695518e+001  0.000000e+000
      vertex -1.530734e+001  3.695518e+001  0.000000e+000
      vertex -7.803613e+000  3.923141e+001  0.000000e+000
    endloop
  endfacet
  facet normal  0.000000e+000  0.000000e+000 -1.000000e+000
    outer loop
      vertex  1.530734e+001  3.695518e+001  0.000000e+000
      vertex -7.803613e+000  3.923141e+001  0.000000e+000
      vertex  7.803613e+000  3.923141e+001  0.000000e+000
    endloop
  endfacet
  facet normal  9.951847e-001 -9.801717e-002  0.000000e+000
    outer loop
      vertex  4.000000e+001  0.000000e+000  0.000000e+000
      vertex  4.000000e+001  0.000000e+000  1.200000e+002
      vertex  3.923141e+001 -7.803613e+000  0.000000e+000
    endloop
  endfacet
  facet normal  9.951847e-001 -9.801717e-002  0.000000e+000
    outer loop
      vertex  3.923141e+001 -7.803613e+000  0.000000e+000
      vertex  4.000000e+001  0.000000e+000  1.200000e+002
      vertex  3.923141e+001 -7.803613e+000  1.200000e+002
    endloop
  endfacet
  facet normal  9.569404e-001 -2.902846e-001  0.000000e+000
    outer loop
      vertex  3.923141e+001 -7.803613e+000  0.000000e+000
      vertex  3.923141e+001 -7.803613e+000  1.200000e+002
      vertex  3.695518e+001 -1.530734e+001  0.000000e+000
    endloop
  endfacet
  facet normal  9.569404e-001 -2.902846e-001  0.000000e+000
    outer loop
      vertex  3.695518e+001 -1.530734e+001  0.000000e+000
      vertex  3.923141e+001 -7.803613e+000  1.200000e+002
      vertex  3.695518e+001 -1.530734e+001  1.200000e+002
    endloop
  endfacet
  facet normal  8.819213e-001 -4.713967e-001  0.000000e+000
    outer loop
      vertex  3.695518e+001 -1.530734e+001  0.000000e+000
      vertex  3.695518e+001 -1.530734e+001  1.200000e+002
      vertex  3.325879e+001 -2.222281e+001  0.000000e+000
    endloop
  endfacet
  facet normal  8.819213e-001 -4.713967e-001  0.000000e+000
    outer loop
      vertex  3.325879e+001 -2.222281e+001  0.000000e+000
      vertex  3.695518e+001 -1.530734e+001  1.200000e+002
      vertex  3.325879e+001 -2.222281e+001  1.200000e+002
    endloop
  endfacet
  facet normal  7.730104e-001 -6.343933e-001  0.000000e+000
    outer loop
      vertex  3.325879e+001 -2.222281e+001  0.000000e+000
      vertex  3.325879e+001 -2.222281e+001  1.200000e+002
      vertex  2.828427e+001 -2.828427e+001  0.000000e+000
    endloop
  endfacet
  facet normal  7.730104e-001 -6.343933e-001  0.000000e+000
    outer loop
      vertex  2.828427e+001 -2.828427e+001  0.000000e+000
      vertex  3.325879e+001 -2.222281e+001  1.200000e+002
      vertex  2.828427e+001 -2.828427e+001  1.200000e+002
    endloop
  endfacet
  facet normal  6.343933e-001 -7.730104e-001  0.000000e+000
    outer loop
      vertex  2.828427e+001 -2.828427e+001  0.000000e+000
      vertex  2.828427e+001 -2.828427e+001  1.200000e+002
      vertex  2.222281e+001 -3.325879e+001  0.000000e+000
    endloop
  endfacet
  facet normal  6.343933e-001 -7.730104e-001  0.000000e+000
    outer loop
      vertex  2.222281e+001 -3.325879e+001  0.000000e+000
      vertex  2.828427e+001 -2.828427e+001  1.200000e+002
      vertex  2.222281e+001 -3.325879e+001  1.200000e+002
    endloop
  endfacet
  facet normal  4.713967e-001 -8.819213e-001  0.000000e+000
    outer loop
      vertex  2.222281e+001 -3.325879e+001  0.000000e+000
      vertex  2.222281e+001 -3.325879e+001  1.200000e+002
      vertex  1.530734e+001 -3.695518e+001  0.000000e+000
    endloop
  endfacet
  facet normal  4.713967e-001 -8.819213e-001  0.000000e+000
    outer loop
      vertex  1.530734e+001 -3.695518e+001  0.000000e+000
      vertex  2.222281e+001 -3.325879e+001  1.200000e+002
      vertex  1.530734e+001 -3.695518e+001  1.200000e+002
    endloop
  endfacet
  facet normal  2.902846e-001 -9.569404e-001  0.000000e+000
    outer loop
      vertex  1.530734e+001 -3.695518e+001  0.000000e+000
      vertex  1.530734e+001 -3.695518e+001  1.200000e+002
      vertex  7.803613e+000 -3.923141e+001  0.000000e+000
    endloop
  endfacet
  facet normal  2.902846e-001 -9.569404e-001  0.000000e+000
    outer loop
      vertex  7.803613e+000 -3.923141e+001  0.000000e+000
      vertex  1.530734e+001 -3.695518e+001  1.200000e+002
      vertex  7.803613e+000 -3.923141e+001  1.200000e+002
    endloop
  endfacet
  facet normal  9.801717e-002 -9.951847e-001  0.000000e+000
    outer loop
      vertex  7.803613e+000 -3.923141e+001  0.000000e+000
      vertex  7.803613e+000 -3.923141e+001  1.200000e+002
      vertex -7.347638e-015 -4.000000e+001  0.000000e+000
    endloop
  endfacet
  facet normal  9.801717e-002 -9.951847e-001  0.000000e+000
    outer loop
      vertex -7.347638e-015 -4.000000e+001  0.000000e+000
      vertex  7.803613e+000 -3.923141e+001  1.200000e+002
      vertex -7.347638e-015 -4.000000e+001  1.200000e+002
    endloop
  endfacet
  facet normal -9.801717e-002 -9.951847e-001  -0.000000e+000
    outer loop
      vertex -7.347638e-015 -4.000000e+001  0.000000e+000
      vertex -7.347638e-015 -4.000000e+001  1.200000e+002
      vertex -7.803613e+000 -3.923141e+001  0.000000e+000
    endloop
  endfacet
  facet normal -9.801717e-002 -9.951847e-001  0.000000e+000
    outer loop
      vertex -7.803613e+000 -3.923141e+001  0.000000e+000
      vertex -7.347638e-015 -4.000000e+001  1.200000e+002
      vertex -7.803613e+000 -3.923141e+001  1.200000e+002
    endloop
  endfacet
  facet normal -2.902846e-001 -9.569404e-001  -0.000000e+000
    outer loop
      vertex -7.803613e+000 -3.923141e+001  0.000000e+000
      vertex -7.803613e+000 -3.923141e+001  1.200000e+002
      vertex -1.530734e+001 -3.695518e+001  0.000000e+000
    endloop
  endfacet
  facet normal -2.902846e-001 -9.569404e-001  0.000000e+000
    outer loop
      vertex -1.530734e+001 -3.695518e+001  0.000000e+000
      vertex -7.803613e+000 -3.923141e+001  1.200000e+002
      vertex -1.530734e+001 -3.695518e+001  1.200000e+002
    endloop
  endfacet
  facet normal -4.713967e-001 -8.819213e-001  -0.000000e+000
    outer loop
      vertex -1.530734e+001 -3.695518e+001  0.000000e+000
      vertex -1.530734e+001 -3.695518e+001  1.200000e+002
      vertex -2.222281e+001 -3.325879e+001  0.000000e+000
    endloop
  endfacet
  facet normal -4.713967e-001 -8.819213e-001  0.000000e+000
    outer loop
      vertex -2.222281e+001 -3.325879e+001  0.000000e+000
      vertex -1.530734e+001 -3.695518e+001  1.200000e+002
      vertex -2.222281e+001 -3.325879e+001  1.200000e+002
    endloop
  endfacet
  facet normal -6.343933e-001 -7.730104e-001  -0.000000e+000
    outer loop
      vertex -2.222281e+001 -3.325879e+001  0.000000e+000
      vertex -2.222281e+001 -3.325879e+001  1.200000e+002
      vertex -2.828427e+001 -2.828427e+001  0.000000e+000
    endloop
  endfacet
  facet normal -6.343933e-001 -7.730104e-001  0.000000e+000
    outer loop
      vertex -2.828427e+001 -2.828427e+001  0.000000e+000
      vertex -2.222281e+001 -3.325879e+001  1.200000e+002
      vertex -2.828427e+001 -2.828427e+001  1.200000e+002
    endloop
  endfacet
  facet normal -7.730104e-001 -6.343933e-001  -0.000000e+000
    outer loop
      vertex -2.828427e+001 -2.828427e+001  0.000000e+000
      vertex -2.828427e+001 -2.828427e+001  1.200000e+002
      vertex -3.325879e+001 -2.222281e+001  0.000000e+000
    endloop
  endfacet
  facet normal -7.730104e-001 -6.343933e-001  0.000000e+000
    outer loop
      vertex -3.325879e+001 -2.222281e+001  0.000000e+000
      vertex -2.828427e+001 -2.828427e+001  1.200000e+002
      vertex -3.325879e+001 -2.222281e+001  1.200000e+002
    endloop
  endfacet
  facet normal -8.819213e-001 -4.713967e-001  -0.000000e+000
    outer loop
      vertex -3.325879e+001 -2.222281e+001  0.000000e+000
      vertex -3.325879e+001 -2.222281e+001  1.200000e+002
      vertex -3.695518e+001 -1.530734e+001  0.000000e+000
    endloop
  endfacet
  facet normal -8.819213e-001 -4.713967e-001  0.000000e+000
    outer loop
      vertex -3.695518e+001 -1.530734e+001  0.000000e+000
      vertex -3.325879e+001 -2.222281e+001  1.200000e+002
      vertex -3.695518e+001 -1.530734e+001  1.200000e+002
    endloop
  endfacet
  facet normal -9.569404e-001 -2.902846e-001  -0.000000e+000
    outer loop
      vertex -3.695518e+001 -1.530734e+001  0.000000e+000
      vertex -3.695518e+001 -1.530734e+001  1.200000e+002
      vertex -3.923141e+001 -7.803613e+000  0.000000e+000
    endloop
  endfacet
  facet normal -9.569404e-001 -2.902846e-001  0.000000e+000
    outer loop
      vertex -3.923141e+001 -7.803613e+000  0.000000e+000
      vertex -3.695518e+001 -1.530734e+001  1.200000e+002
      vertex -3.923141e+001 -7.803613e+000  1.200000e+002
    endloop
  endfacet
  facet normal -9.951847e-001 -9.801717e-002  -0.000000e+000
    outer loop
      vertex -3.923141e+001 -7.803613e+000  0.000000e+000
      vertex -3.923141e+001 -7.803613e+000  1.200000e+002
      vertex -4.000000e+001  4.898425e-015  0.000000e+000
    endloop
  endfacet
  facet normal -9.951847e-001 -9.801717e-002  0.000000e+000
    outer loop
      vertex -4.000000e+001  4.898425e-015  0.000000e+000
      vertex -3.923141e+001 -7.803613e+000  1.200000e+002
      vertex -4.000000e+001  4.898425e-015  1.200000e+002
    endloop
  endfacet
endsolid CATIA STL
